#!OML:ASF H:\Terrain\Patient Classification 1\Animal2\Wednesday\Animal2.ASF
:FULLY-SPECIFIED
:DEGREES
683
root 19.2607 17.1541 -19.3645 -1.09876 7.64561 2.58516
lowerback 1.80923 2.46944 6.34014
upperback -2.48162 3.62563 3.29612
thorax -3.40969 1.6876 -0.303176
lowerneck 14.7153 12.1763 18.8435
upperneck -27.5627 15.7504 -27.5555
head -6.4281 9.03727 -14.0106
rclavicle 6.16232e-015 3.49861e-014
rhumerus -39.0695 14.7038 -91.7698
rradius 112.633
rwrist -11.6007
rhand -15.3382 9.09712
rfingers 7.12502
rthumb 10.8386 -20.6032
lclavicle 6.16232e-015 3.49861e-014
lhumerus -43.6912 8.01611 68.0894
lradius 132.293
lwrist 58.3306
lhand -0.214051 36.7873
lfingers 7.12502
lthumb 25.3853 65.1174
rfemur 8.22344 4.56946 11.9911
rtibia 30.4473
rfoot -24.6326 -12.4421
rtoes -9.029
lfemur -23.3429 -8.98827 -12.6987
ltibia 31.4293
lfoot -12.2152 -10.7223
ltoes -35.8102
684
root 19.228 17.1609 -19.3819 -1.08725 7.62936 2.44881
lowerback 1.74213 2.28772 6.25276
upperback -2.48887 3.3785 3.39391
thorax -3.40215 1.56882 -0.141872
lowerneck 14.867 12.3395 18.625
upperneck -27.9439 15.9434 -27.406
head -6.56739 9.1292 -13.9713
rclavicle -6.75868e-015 -9.54166e-015
rhumerus -39.5615 14.7737 -91.9598
rradius 112.648
rwrist -11.6973
rhand -14.621 9.23637
rfingers 7.12502
rthumb 11.5302 -20.4265
lclavicle -6.75868e-015 -9.54166e-015
lhumerus -43.4796 8.12938 67.422
lradius 131.968
lwrist 58.7043
lhand 0.282499 36.0166
lfingers 7.12502
lthumb 25.8609 64.2782
rfemur 8.24388 4.31397 12.2468
rtibia 30.2253
rfoot -24.6235 -12.8102
rtoes -10.8278
lfemur -23.2714 -9.03036 -12.3836
ltibia 31.1172
lfoot -12.4671 -10.2892
ltoes -36.7543
685
root 19.1986 17.1682 -19.4014 -1.0306 7.43161 2.3282
lowerback 1.67203 2.1436 6.2125
upperback -2.51598 3.18391 3.49097
thorax -3.40745 1.47421 -0.00960187
lowerneck 14.9104 12.5046 18.5091
upperneck -28.0678 16.1573 -27.3263
head -6.58152 9.23173 -13.923
rclavicle -5.08889e-014 -3.81667e-014
rhumerus -39.9849 15.0866 -92.1976
rradius 112.551
rwrist -11.6305
rhand -14.1288 9.34253
rfingers 7.12502
rthumb 12.0049 -20.2932
lclavicle -5.08889e-014 -3.81667e-014
lhumerus -43.341 8.20494 66.8129
lradius 131.651
lwrist 59.212
lhand 0.513728 35.5251
lfingers 7.12502
lthumb 26.0823 63.7543
rfemur 8.10374 4.08988 12.3946
rtibia 30.0826
rfoot -24.7459 -12.9882
rtoes -13.0101
lfemur -23.2984 -8.96295 -12.0802
ltibia 30.9888
lfoot -12.7224 -9.78338
ltoes -37.5417
686
root 19.173 17.1633 -19.4287 -0.893742 6.982 2.35108
lowerback 1.63211 2.09802 6.03915
upperback -2.52399 3.11728 3.5827
thorax -3.40965 1.44688 0.184659
lowerneck 14.6447 12.6281 18.5507
upperneck -27.9508 16.2713 -27.5363
head -6.432 9.30264 -13.9409
rclavicle 1.76918e-014 -2.8625e-014
rhumerus -40.3168 15.4538 -92.3333
rradius 112.344
rwrist -11.3546
rhand -13.5869 9.42089
rfingers 7.12502
rthumb 12.5274 -20.1836
lclavicle 1.76918e-014 -2.8625e-014
lhumerus -43.191 8.26501 66.4641
lradius 131.255
lwrist 59.7032
lhand 0.865777 34.6828
lfingers 7.12502
lthumb 26.4194 62.8618
rfemur 7.72032 3.91759 12.279
rtibia 30.0753
rfoot -24.8866 -13.1082
rtoes -14.1162
lfemur -23.4451 -8.71076 -11.9246
ltibia 31.0208
lfoot -12.8329 -9.11883
ltoes -38.2182
687
root 19.1481 17.1443 -19.4639 -0.821765 6.55624 2.2341
lowerback 1.7854 2.05915 6.02509
upperback -2.55907 3.08504 3.69023
thorax -3.54126 1.42918 0.298033
lowerneck 14.387 12.7885 18.4848
upperneck -27.9494 16.4229 -27.6334
head -6.33723 9.38468 -13.9137
rclavicle 1.66979e-014 2.8625e-014
rhumerus -40.6448 15.6729 -92.392
rradius 112.137
rwrist -11.259
rhand -13.3732 9.37598
rfingers 7.12502
rthumb 12.7335 -20.2158
lclavicle 1.66979e-014 2.8625e-014
lhumerus -43.1121 8.2477 66.182
lradius 130.871
lwrist 60.285
lhand 0.780572 33.4875
lfingers 7.12502
lthumb 26.3378 61.6787
rfemur 7.30775 3.73617 12.3472
rtibia 30.2229
rfoot -25.1015 -13.2622
rtoes -15.737
lfemur -23.667 -8.30645 -11.6294
ltibia 31.1972
lfoot -13.0166 -8.59197
ltoes -39.1231
688
root 19.1218 17.1232 -19.4994 -0.801026 6.12712 2.0297
lowerback 2.02109 2.05997 6.17645
upperback -2.69136 3.12406 3.72825
thorax -3.80679 1.43662 0.240754
lowerneck 14.6687 12.8588 18.3593
upperneck -28.2575 16.5529 -27.3735
head -6.50209 9.42846 -13.865
rclavicle 2.92213e-014 -5.56597e-014
rhumerus -41.121 15.6522 -92.5691
rradius 112.073
rwrist -11.235
rhand -13.4879 9.06006
rfingers 7.12502
rthumb 12.6228 -20.5385
lclavicle 2.92213e-014 -5.56597e-014
lhumerus -43.1735 8.04276 65.7495
lradius 130.526
lwrist 61.303
lhand 0.142234 32.5441
lfingers 7.12502
lthumb 25.7266 60.8252
rfemur 6.87877 3.52892 12.511
rtibia 30.5021
rfoot -25.6574 -13.1654
rtoes -16.3362
lfemur -23.8875 -7.94204 -11.2178
ltibia 31.4772
lfoot -13.4164 -8.07655
ltoes -39.5914
689
root 19.0938 17.1052 -19.5347 -0.638361 5.5884 1.90865
lowerback 2.10179 2.1003 6.27064
upperback -2.84399 3.1983 3.69313
thorax -4.00279 1.463 0.143425
lowerneck 15.043 12.8547 18.548
upperneck -28.5244 16.6323 -27.3688
head -6.61579 9.4552 -13.9672
rclavicle 1.92821e-014 2.8625e-014
rhumerus -41.5317 15.6171 -92.8244
rradius 112.015
rwrist -11.0744
rhand -13.2403 8.63435
rfingers 7.12502
rthumb 12.8615 -20.9494
lclavicle 1.92821e-014 2.8625e-014
lhumerus -43.2393 7.78889 65.3626
lradius 130.184
lwrist 62.3996
lhand -1.17559 31.8122
lfingers 7.12502
lthumb 24.4639 60.27
rfemur 6.23038 3.34858 12.5479
rtibia 30.8466
rfoot -26.4653 -12.8572
rtoes -15.0575
lfemur -24.2549 -7.66163 -10.8521
ltibia 31.8297
lfoot -13.7546 -7.54619
ltoes -39.3074
690
root 19.0647 17.0846 -19.5711 -0.476796 5.08893 1.90073
lowerback 2.1721 2.09539 6.21664
upperback -2.91187 3.19846 3.63662
thorax -4.11293 1.45985 0.110852
lowerneck 14.9324 12.9281 18.9208
upperneck -28.4391 16.783 -27.5695
head -6.46058 9.51817 -14.0483
rclavicle 2.32578e-014 -7.95139e-015
rhumerus -41.7788 15.6961 -93.0062
rradius 111.899
rwrist -11.0759
rhand -12.6932 8.29313
rfingers 7.12502
rthumb 13.389 -21.2566
lclavicle 2.32578e-014 -7.95139e-015
lhumerus -43.2219 7.73611 65.1527
lradius 129.786
lwrist 63.1939
lhand -2.70769 31.1761
lfingers 7.12502
lthumb 22.9945 59.8246
rfemur 5.62528 3.19141 12.4783
rtibia 31.1783
rfoot -27.4077 -12.4445
rtoes -13.7462
lfemur -24.6471 -7.39433 -10.6275
ltibia 32.2353
lfoot -14.0053 -7.20627
ltoes -39.0239
691
root 19.0346 17.0553 -19.6048 -0.477278 4.71162 1.99133
lowerback 2.36322 2.03771 6.03938
upperback -2.9678 3.13241 3.5593
thorax -4.28654 1.42607 0.123619
lowerneck 14.8777 13.0069 19.1766
upperneck -28.3544 16.9633 -27.5217
head -6.35645 9.57526 -14.027
rclavicle 2.54444e-014 2.06736e-014
rhumerus -42.168 15.7441 -93.272
rradius 111.777
rwrist -11.1149
rhand -11.9022 8.20781
rfingers 7.12502
rthumb 14.1512 -21.2902
lclavicle 2.54444e-014 2.06736e-014
lhumerus -43.3149 7.81646 64.9517
lradius 129.248
lwrist 63.9394
lhand -3.07621 30.5626
lfingers 7.12502
lthumb 22.6408 59.2546
rfemur 5.26408 2.95922 12.3593
rtibia 31.4589
rfoot -28.026 -12.6323
rtoes -13.9632
lfemur -24.9115 -7.02729 -10.5629
ltibia 32.6938
lfoot -14.293 -7.15923
ltoes -39.3179
